<?xml version="1.0" encoding="UTF-8" standalone="no"?>
<!-- Created with Inkscape (http://www.inkscape.org/) -->

<svg
   width="210mm"
   height="297mm"
   viewBox="0 0 210 297"
   version="1.1"
   id="svg5"
   sodipodi:docname="schwurbel-as-a-service.svg"
   inkscape:version="1.1.1 (3bf5ae0d25, 2021-09-20)"
   xmlns:inkscape="http://www.inkscape.org/namespaces/inkscape"
   xmlns:sodipodi="http://sodipodi.sourceforge.net/DTD/sodipodi-0.dtd"
   xmlns="http://www.w3.org/2000/svg"
   xmlns:svg="http://www.w3.org/2000/svg">
  <sodipodi:namedview
     id="namedview7"
     pagecolor="#ffffff"
     bordercolor="#666666"
     borderopacity="1.0"
     inkscape:pageshadow="2"
     inkscape:pageopacity="0.0"
     inkscape:pagecheckerboard="0"
     inkscape:document-units="mm"
     showgrid="false"
     inkscape:zoom="2.8393638"
     inkscape:cx="1108.6991"
     inkscape:cy="344.44336"
     inkscape:window-width="1920"
     inkscape:window-height="995"
     inkscape:window-x="1911"
     inkscape:window-y="-9"
     inkscape:window-maximized="1"
     inkscape:current-layer="layer1" />
  <defs
     id="defs2" />
  <g
     inkscape:groupmode="layer"
     id="layer2"
     inkscape:label="Ebene 2"
     style="display:inline">
    <path
       style="display:inline;fill:#00ff00;stroke:#00ff00;stroke-width:1.47536"
       d="m 290.92673,91.532644 c -0.29678,-0.0102 -0.51527,0.43091 -0.62211,0.49913 -0.36751,-0.67814 -1.35184,-0.44899 -1.92077,-0.24601 -0.73208,0.50999 -1.51797,1.15562 -1.99117,1.90374 -0.37375,0.15418 -0.30216,0.61805 -0.62188,0.85772 -0.26927,0.7951 -0.57354,1.75715 -0.17203,2.56271 0.35449,0.52021 1.17001,1.10447 1.75379,0.62594 0.39235,-0.0591 0.7185,-0.41704 0.98935,-0.72429 0.37397,1.01628 1.74144,1.03578 2.52408,0.53521 0.19486,-0.28425 0.63436,-0.39086 0.71387,-0.74614 0.45889,-0.37314 0.70569,-1.15329 0.42619,-1.73169 -0.50038,-0.41662 -0.62074,0.38798 -0.92072,0.61857 -0.25223,0.56411 -0.76314,1.0116 -1.32991,1.22443 0.0799,-0.81825 0.48739,-1.59188 0.85847,-2.28088 0.51835,-0.74504 0.98706,-1.71102 0.83484,-2.63362 -0.1447,-0.20226 -0.17193,-0.50917 -0.522,-0.46482 z m -1.42978,1.39445 c 0.0346,0.36526 -0.2018,0.71429 -0.29199,1.03535 -0.32253,0.33395 -0.18727,0.85095 -0.59785,1.13119 -0.49993,0.57359 -0.78611,1.60623 -1.61518,1.69634 -0.17457,-1.25267 0.71639,-2.28586 1.50826,-3.11475 0.29511,-0.26914 0.62058,-0.6575 0.99676,-0.74813 z"
       id="path34505" />
    <path
       style="display:inline;fill:#00ff00;stroke:#00ff00;stroke-width:1.47536"
       d="m 281.44235,91.013694 c -0.32311,0.0969 -0.61418,0.29222 -0.82114,0.55174 -0.10572,0.29204 -0.44066,0.50236 -0.39973,0.88693 -0.0331,0.35118 -0.34353,0.54008 -0.43992,0.81578 -0.17796,0.25433 -0.3969,0.50224 -0.50422,0.77055 -0.22265,0.16411 -0.2264,0.59508 -0.59187,0.39797 -0.8632,-0.0238 -0.69675,1.13352 -0.97996,1.65266 -0.17307,0.36249 -0.38011,0.61804 -0.74997,0.75402 -0.47818,0.36695 -0.27162,-0.42142 -0.26074,-0.69074 0.32356,-0.51026 0.58002,-1.07272 0.88796,-1.64071 0.25533,-0.37786 0.44525,-0.75656 0.61603,-1.20003 0.17182,-0.50055 0.27639,-1.22941 -0.0849,-1.66968 -0.37709,-0.19966 -0.7193,0.39545 -0.93726,0.415 -0.65622,-0.85172 -1.86034,-0.35369 -2.52741,0.17078 -0.56102,0.29181 -0.93911,0.87613 -1.27881,1.33193 -0.38166,0.37944 -0.60272,0.8535 -0.83788,1.32406 -0.14888,0.33398 -0.10002,0.71355 -0.19545,1.08948 -0.1487,0.79647 0.25889,1.6696 1.06587,1.8735 0.48104,0.17438 0.94369,-0.12168 1.33498,-0.35732 0.23339,-0.21345 0.63598,-0.60412 0.78629,-0.13139 0.57949,0.71993 1.78528,0.61623 2.38737,0.076 0.27167,-0.13233 0.43285,-0.48231 0.67751,-0.0915 0.35412,0.33905 0.83815,0.3725 1.26307,0.55021 0.58899,0.10282 1.1466,-0.10565 1.66868,-0.22644 0.47894,-0.30511 1.06566,-0.54785 1.35022,-1.09507 0.36324,-0.38862 0.78232,-1.11633 0.35959,-1.61022 -0.39542,-0.33238 -0.76139,0.15389 -0.83711,0.49888 -0.22667,0.2061 -0.23022,0.51398 -0.55655,0.67015 -0.23085,0.36606 0.0953,-0.30315 0.0406,-0.46252 -0.0236,-1.36914 -0.30827,-2.80464 0.15047,-4.12541 0.0268,-0.32278 -0.27178,-0.57661 -0.58579,-0.52861 z m -4.92697,1.77083 c -0.11155,0.44156 -0.28958,0.82201 -0.39949,1.25569 -0.28154,0.33893 -0.38621,0.8282 -0.68363,1.15506 -0.1148,0.2457 -0.18706,0.49317 -0.46252,0.62365 -0.18764,0.45958 -0.65458,0.9107 -1.13601,1.00968 -0.12703,-0.71412 0.22598,-1.44352 0.6056,-1.95457 0.38346,-0.65206 0.92176,-1.31723 1.55382,-1.80716 0.2042,-0.0346 0.32313,-0.25325 0.52223,-0.28235 z m -0.85439,0.0783 c -0.0127,-0.006 -0.0103,-0.0499 0,0 z m 4.57523,1.5754 c 0.18529,0.7666 -0.0469,1.58192 -0.16214,2.30146 -0.36108,0.34811 -0.53131,-0.35478 -0.73295,-0.49734 -0.28659,-0.38679 0.21611,-0.68371 0.29049,-1.05086 0.25014,-0.17563 0.29154,-0.46076 0.51006,-0.6666 -0.0384,-0.0495 0.10184,-0.17118 0.0945,-0.0867 z m -4.76483,2.35483 c 0.0167,-0.0301 0.11864,-0.049 0,0 z m 5.6088,0.12733 c 0.10093,0.44542 -0.34097,-0.29913 0,0 z"
       id="path34655" />
    <path
       style="display:inline;fill:#00ff00;stroke:#00ff00;stroke-width:1.04323"
       d="m 306.98964,90.422165 c -0.9107,0.249327 -1.50807,1.268878 -1.51165,2.182119 -0.0823,0.309287 0.38717,0.485566 0.18257,0.743429 -0.6445,1.249638 -1.39293,2.55083 -2.67899,3.21325 -0.44553,0.25951 -1.30043,0.14316 -1.21317,-0.52239 -2.1e-4,-0.25028 0.0167,-0.50097 0.0555,-0.74828 0.80431,0.47641 1.83912,0.2064 2.41358,-0.49939 0.61042,-0.659925 1.25307,-1.726752 0.59931,-2.572437 -0.42505,-0.696034 -1.36985,-1.123765 -2.11151,-0.647647 -1.64779,0.878522 -2.98947,2.801961 -2.49909,4.725264 0.29943,1.15825 1.66788,1.6913 2.74727,1.32872 1.58922,-0.46406 2.59647,-1.93799 3.43932,-3.265368 0.22098,-0.273386 0.28401,-0.721572 0.56248,-0.925465 0.46511,-0.10944 0.40291,0.01368 0.12586,0.335417 -0.67627,0.93381 -1.24171,2.312416 -0.53864,3.379566 0.66345,0.90252 2.00346,0.67019 2.74638,0.007 0.21825,0.37674 0.81711,0.91202 1.23777,0.54468 1.08794,-1.52732 2.23131,-3.00758 3.39093,-4.48654 0.32766,-0.492652 1.03661,-1.1458 0.58338,-1.765298 -0.5288,-0.366942 -0.90451,0.412084 -1.23402,0.708745 -0.8768,1.040495 -1.68521,2.137111 -2.45959,3.255303 0.15412,-1.004609 0.62857,-1.985377 0.56121,-3.01037 -0.10256,-0.477115 -0.44474,-1.284182 -1.05521,-1.073359 -0.46943,0.486378 -0.47784,1.258773 -0.6861,1.878425 -0.29741,1.194292 -0.38589,2.720604 -1.55802,3.424224 -0.26138,0.18595 -0.44548,-0.038 -0.36013,-0.31951 0.10452,-1.37852 1.36962,-2.240495 1.88635,-3.43267 0.0277,-0.531675 -0.22405,-1.195552 -0.72509,-1.4351 -0.52943,-0.02231 -0.93607,0.434139 -1.4324,0.570732 0.15423,-0.511775 0.35422,-1.483106 -0.39537,-1.595572 l -0.0334,-1.8e-4 z m -3.3006,2.246095 c -0.23709,0.657466 -0.69207,1.360991 -1.36268,1.613004 -0.23929,0.01114 0.17848,-0.354791 0.2106,-0.48268 0.30708,-0.409689 0.72486,-0.913331 1.15208,-1.130324 z"
       id="path37888" />
    <path
       style="fill:#00ff00;stroke:#00ff00;stroke-width:1.39404"
       d="m 1223.3684,345.78237 c -3.1529,0.18417 -5.8175,2.29907 -7.856,4.55381 -2.4806,2.89136 -4.2484,6.43847 -4.843,10.21271 -1.1809,1.84549 -2.8703,3.32222 -4.7175,4.51838 -1.3019,0.70925 -2.8656,1.34 -4.3553,0.96281 -1.1667,-0.80345 -1.1215,-2.45319 -1.0503,-3.72801 0.3455,-3.75399 2.6521,-6.98203 5.1288,-9.68084 0.5045,-0.5656 0.9682,-0.97988 0.4884,-0.0466 -0.6851,1.50344 -1.2158,3.17421 -0.8004,4.83148 0.4241,1.5584 1.853,3.21142 3.6055,2.95047 1.2336,-0.36274 1.5191,-1.83759 2.0798,-2.82728 0.7457,-1.87306 1.7349,-3.74638 1.8499,-5.79216 -0.1212,-2.2234 -1.9175,-3.87641 -3.6183,-5.08426 -1.6539,-1.07108 -3.8591,-0.83746 -5.5568,0.0113 -3.9341,1.97214 -6.8305,5.62963 -8.5577,9.61452 -0.6756,1.41704 -0.8394,2.99242 -1.3159,4.46737 -1.106,1.97804 -2.4688,3.98549 -4.4688,5.14909 -0.2842,0.11755 -0.9313,0.27512 -0.742,-0.24277 0.092,-2.25697 1.396,-4.20398 2.3254,-6.19345 1.3119,-2.64066 2.9835,-5.17529 3.6744,-8.07264 0.2439,-1.57102 -0.082,-3.37835 -1.2061,-4.55454 -1.009,-0.92113 -2.5988,-0.29956 -3.1837,0.803 -2.8055,4.24438 -5.3625,8.72142 -7.0041,13.5553 -0.7893,2.28562 -1.1106,5.05547 0.4102,7.12393 1.5806,2.17196 4.6921,2.29755 7.0269,1.45998 1.7583,-0.60831 3.3606,-1.63847 4.6554,-2.974 1.55,2.55149 4.679,3.63588 7.549,3.43665 3.3316,-0.12392 6.4136,-1.77725 8.8775,-3.93756 1.1651,2.48971 3.8562,3.94205 6.5431,4.02529 2.7236,0.17524 5.3592,-0.8892 7.7469,-2.08974 2.4027,-1.38198 4.6697,-3.37106 5.6753,-6.01799 0.5036,-1.30966 0.3927,-3.24514 -1.1115,-3.82214 -0.996,-0.40749 -1.8142,0.44483 -2.2901,1.21633 -1.8913,2.62858 -4.1818,5.29024 -7.3511,6.33718 -1.1316,0.2328 -2.7641,0.483 -3.4031,-0.75953 -0.5115,-1.28689 -0.3286,-2.71919 -0.1251,-4.05314 2.4115,1.35902 5.6053,1.18268 7.7639,-0.59402 2.6064,-1.98671 4.7884,-4.98978 4.8265,-8.37722 -0.1201,-2.63494 -2.1817,-4.81592 -4.469,-5.90118 -0.6899,-0.31028 -1.4405,-0.50504 -2.2011,-0.4805 z m 0.9087,5.40603 c -0.8275,2.08146 -2.1333,4.03431 -3.8867,5.44542 -0.3783,0.26638 -1.0164,0.55294 -1.3964,0.46681 1.3454,-2.29873 3.0798,-4.44408 5.2963,-5.95161 z"
       id="path38146"
       transform="scale(0.26458333)" />
    <path
       style="display:inline;fill:#00ff00;stroke:#00ff00;stroke-width:0.737677"
       d="m 299.98364,88.435656 c -1.20388,0.09779 -2.21604,0.883682 -3.10287,1.639438 -0.95282,0.880263 -1.81658,2.189437 -1.48559,3.540384 0.3896,1.1459 1.59166,1.696461 2.49698,2.36342 0.15216,0.169052 0.51782,0.252476 0.54899,0.503118 -0.20098,0.316987 -0.65826,0.122859 -0.96864,0.173958 -0.77846,-0.02019 -1.33668,-0.672555 -1.98438,-1.020053 -0.52144,-0.405344 -1.33683,-0.640959 -1.90899,-0.213529 -0.36383,0.374271 0.14599,0.791413 0.39285,1.058899 0.65019,0.721789 1.48526,1.267815 2.43435,1.499285 1.30482,0.386779 2.96873,-0.180371 3.49216,-1.498814 0.18486,-0.453366 0.10173,-1.009888 -0.33441,-1.287658 -0.72776,-0.699649 -1.78123,-1.004245 -2.40239,-1.816627 -0.21688,-0.659027 0.29599,-1.277114 0.69673,-1.753544 0.71773,-0.751734 1.57922,-1.3954 2.58762,-1.681372 -0.0185,0.227597 -0.26268,0.578067 -0.41404,0.827776 -0.4412,0.670126 -1.0005,1.559038 -0.58804,2.369777 0.16515,0.296778 0.59547,0.763201 0.87545,0.34009 0.61241,-0.788043 1.15271,-1.648661 1.56009,-2.559976 0.23892,-0.848984 -0.26482,-1.781995 -0.96292,-2.255086 -0.27861,-0.169161 -0.60873,-0.242414 -0.93295,-0.229486 z"
       id="path38391" />
  </g>
  <g
     inkscape:label="Ebene 1"
     inkscape:groupmode="layer"
     id="layer1"
     style="display:inline">
    <text
       xml:space="preserve"
       style="font-style:normal;font-weight:normal;font-size:6.27197px;line-height:0.45;font-family:sans-serif;fill:#00ff00;fill-opacity:1;stroke:#008000;stroke-width:0.0644867;stroke-miterlimit:4;stroke-dasharray:none"
       x="271.18423"
       y="89.172646"
       id="text1947"><tspan
         sodipodi:role="line"
         style="font-style:normal;font-variant:normal;font-weight:normal;font-stretch:normal;font-size:4.54989px;font-family:handwriting-draft_free-version;-inkscape-font-specification:handwriting-draft_free-version;text-align:center;text-anchor:middle;fill:#cccccc;stroke:#cccccc;stroke-width:0.0644867;stroke-miterlimit:4;stroke-dasharray:none"
         x="271.18423"
         y="89.172646"
         id="tspan6913">SCHWURBEL ...</tspan></text>
    <text
       xml:space="preserve"
       style="font-style:normal;font-weight:normal;font-size:19.452px;line-height:0.45;font-family:sans-serif;fill:#000000;fill-opacity:1;stroke:#000000;stroke-width:0.2;stroke-miterlimit:4;stroke-dasharray:none"
       x="280.10666"
       y="97.4142"
       id="text30942"><tspan
         sodipodi:role="line"
         style="font-style:normal;font-variant:normal;font-weight:normal;font-stretch:normal;font-size:14.1111px;font-family:'Copyright House Industries';-inkscape-font-specification:'Copyright House Industries';text-align:center;text-anchor:middle;fill:#000000;stroke:#000000;stroke-width:0.2;stroke-miterlimit:4;stroke-dasharray:none"
         x="280.10666"
         y="97.4142"
         id="tspan30940">        ... as a Service</tspan></text>
    <text
       xml:space="preserve"
       style="font-style:normal;font-weight:normal;font-size:10.5833px;line-height:1.25;font-family:sans-serif;fill:#000000;fill-opacity:1;stroke:none;stroke-width:0.264583"
       x="270.12531"
       y="136.62407"
       id="text35411"><tspan
         sodipodi:role="line"
         id="tspan35409"
         style="stroke-width:0.264583"
         x="270.12531"
         y="136.62407">internet buzz word compliant</tspan></text>
  </g>
</svg>
